<svg width="500" height="81" viewBox="0 0 500 81" fill="none" xmlns="http://www.w3.org/2000/svg">
<path d="M43.1037 33.7879C39.8055 28.441 33.4366 25.2556 26.3854 25.2556C9.89452 25.2556 0 37.5421 0 53.1278C0 68.7135 8.98467 81 26.0442 81C32.5268 81 39.8055 77.8146 43.1037 72.4677V79.6348H55.3865V0H43.1037V33.7879ZM27.8639 69.9649C18.1968 69.9649 12.3966 62.7978 12.3966 53.1278C12.3966 43.4579 18.1968 36.2907 27.8639 36.2907C38.4408 36.2907 43.5586 44.0267 43.5586 53.1278C43.5586 62.2289 38.4408 69.9649 27.8639 69.9649Z" fill="white"/>
<path d="M88.8001 81C95.2827 81 102.561 77.8146 105.86 72.4677V79.6348H118.142V26.6208H105.86V33.7879C102.561 28.441 96.1925 25.2556 89.1413 25.2556C72.6504 25.2556 62.7559 37.5421 62.7559 53.1278C62.7559 68.7135 71.7406 81 88.8001 81ZM90.6198 69.9649C80.9527 69.9649 75.1525 62.7978 75.1525 53.1278C75.1525 43.4579 80.9527 36.2907 90.6198 36.2907C101.197 36.2907 106.315 44.0267 106.315 53.1278C106.315 62.2289 101.197 69.9649 90.6198 69.9649Z" fill="white"/>
<path d="M159.631 25.2556C152.125 25.2556 145.073 28.6685 141.775 33.7879V0H129.492V79.6348H141.775V72.4677C145.073 77.5871 151.783 81 158.835 81C174.188 81 184.879 69.5098 184.879 53.1278C184.879 36.4045 174.757 25.2556 159.631 25.2556ZM157.015 69.9649C147.689 69.9649 141.32 63.139 141.32 53.1278C141.32 43.1166 147.689 36.2907 157.015 36.2907C166.113 36.2907 172.482 43.2303 172.482 53.1278C172.482 63.0253 166.113 69.9649 157.015 69.9649Z" fill="white"/>
<path d="M222.387 25.2556C214.881 25.2556 207.829 28.6685 204.531 33.7879V0H192.248V79.6348H204.531V72.4677C207.829 77.5871 214.539 81 221.591 81C236.944 81 247.635 69.5098 247.635 53.1278C247.635 36.4045 237.513 25.2556 222.387 25.2556ZM219.771 69.9649C210.445 69.9649 204.076 63.139 204.076 53.1278C204.076 43.1166 210.445 36.2907 219.771 36.2907C228.869 36.2907 235.238 43.2303 235.238 53.1278C235.238 63.0253 228.869 69.9649 219.771 69.9649Z" fill="white"/>
<path d="M267.401 79.6348V0H255.004V79.6348H267.401Z" fill="white"/>
<path d="M326.77 50.3975C326.77 35.4944 316.535 25.2556 301.409 25.2556C285.259 25.2556 274.796 36.177 274.796 53.1278C274.796 70.3062 285.145 81 301.864 81C314.601 81 324.61 74.0604 326.202 64.1629H313.691C311.644 68.2584 308.005 70.1924 301.864 70.1924C292.879 70.1924 287.42 65.6419 287.079 57.2233H326.429C326.657 54.2654 326.77 52.559 326.77 50.3975ZM287.079 47.7809C287.192 40.2725 292.424 35.0393 301.181 35.0393C309.711 35.0393 314.488 39.5899 314.601 47.7809H287.079Z" fill="white"/>
<path d="M370.482 79.6348V0H358.085V79.6348H370.482Z" fill="white"/>
<path d="M403.921 81C410.404 81 417.683 77.8146 420.981 72.4677V79.6348H433.264V26.6208H420.981V33.7879C417.683 28.441 411.314 25.2556 404.262 25.2556C387.772 25.2556 377.877 37.5421 377.877 53.1278C377.877 68.7135 386.862 81 403.921 81ZM405.741 69.9649C396.074 69.9649 390.274 62.7978 390.274 53.1278C390.274 43.4579 396.074 36.2907 405.741 36.2907C416.318 36.2907 421.436 44.0267 421.436 53.1278C421.436 62.2289 416.318 69.9649 405.741 69.9649Z" fill="white"/>
<path d="M474.752 25.2556C467.246 25.2556 460.194 28.6685 456.896 33.7879V0H444.613V79.6348H456.896V72.4677C460.194 77.5871 466.905 81 473.956 81C489.309 81 500 69.5098 500 53.1278C500 36.4045 489.878 25.2556 474.752 25.2556ZM472.136 69.9649C462.81 69.9649 456.441 63.139 456.441 53.1278C456.441 43.1166 462.81 36.2907 472.136 36.2907C481.235 36.2907 487.603 43.2303 487.603 53.1278C487.603 63.0253 481.235 69.9649 472.136 69.9649Z" fill="white"/>
</svg>
